<svg xmlns="http://www.w3.org/2000/svg" aria-hidden="true" style="position:absolute;width:0;height:0;overflow:hidden">
  <defs>
    <symbol id="icon-logo" viewBox="0 0 41 32">
      <path d="M16.241 31.144v-4.916l-.219-.922v-8.384c0-1.785-.527-3.16-1.58-4.126-1.024-.995-2.575-1.492-4.653-1.492-1.375 0-2.721.234-4.038.702-1.317.439-2.429 1.039-3.336 1.8L.659 10.645c1.2-.966 2.634-1.697 4.302-2.195a17.807 17.807 0 0 1 5.311-.79c3.19 0 5.648.775 7.374 2.326s2.59 3.921 2.59 7.111v14.047h-3.994zm-7.637.263c-1.727 0-3.248-.293-4.565-.878-1.288-.585-2.283-1.39-2.985-2.414C.352 27.062 0 25.876 0 24.559c0-1.258.293-2.4.878-3.424.615-1.024 1.595-1.844 2.941-2.458 1.375-.615 3.219-.922 5.531-.922h7.375v3.029H9.526c-2.107 0-3.526.351-4.258 1.053s-1.097 1.551-1.097 2.546c0 1.141.454 2.063 1.361 2.765.907.673 2.166 1.01 3.775 1.01 1.58 0 2.956-.351 4.126-1.053 1.2-.702 2.063-1.727 2.59-3.073l.834 2.897c-.556 1.375-1.536 2.473-2.941 3.292-1.405.79-3.175 1.185-5.311 1.185z"/>
      <path d="M29.718 31.407c-2.487 0-4.682-.512-6.584-1.536-1.873-1.024-3.336-2.429-4.39-4.214-1.024-1.785-1.536-3.834-1.536-6.145s.497-4.36 1.492-6.145c1.024-1.785 2.414-3.175 4.17-4.17 1.785-1.024 3.79-1.536 6.014-1.536 2.253 0 4.243.498 5.97 1.492s3.073 2.4 4.038 4.214c.995 1.785 1.492 3.878 1.492 6.277 0 .176-.015.38-.044.614 0 .234-.015.454-.044.659H20.499v-3.029h17.602l-1.712 1.053c.029-1.492-.278-2.824-.922-3.995s-1.536-2.078-2.678-2.722c-1.112-.673-2.414-1.01-3.907-1.01-1.463 0-2.765.337-3.907 1.01-1.141.644-2.034 1.566-2.678 2.765-.644 1.171-.966 2.517-.966 4.038v.702c0 1.551.351 2.941 1.053 4.17.732 1.2 1.741 2.136 3.029 2.809s2.765 1.01 4.433 1.01c1.375 0 2.619-.234 3.731-.702a8.183 8.183 0 0 0 2.985-2.107l2.327 2.721c-1.053 1.229-2.37 2.166-3.951 2.809-1.551.644-3.292.966-5.224.966zM37.311 3.292H21.947V0h15.364v3.292z"/>
    </symbol>
    <symbol id="icon-tel" viewBox="0 0 32 32">
      <path d="m29.276 6.061-3.873-3.869a2.5 2.5 0 0 0-3.55 0l-4.171 4.163a2.509 2.509 0 0 0 0 3.556l3.258 3.261a14.754 14.754 0 0 1-3.142 4.629 14.78 14.78 0 0 1-4.625 3.149l-3.258-3.261a2.5 2.5 0 0 0-1.775-.738 2.482 2.482 0 0 0-1.775.738L2.19 21.852a2.509 2.509 0 0 0 0 3.556l3.869 3.869a4.355 4.355 0 0 0 3.062 1.269c.236 0 .465-.018.698-.058 4.814-.793 9.593-3.356 13.451-7.21 3.855-3.861 6.415-8.639 7.215-13.456a4.335 4.335 0 0 0-1.211-3.76zm-1.367 3.327c-.709 4.287-3.015 8.563-6.487 12.035S13.676 27.2 9.389 27.909a1.711 1.711 0 0 1-1.484-.48l-3.8-3.8 4.029-4.032 4.389 4.396.785-.291A17.504 17.504 0 0 0 23.697 13.31l.291-.785-4.393-4.389 4.029-4.032 3.8 3.8a1.7 1.7 0 0 1 .484 1.483z"/>
    </symbol>
    <symbol id="icon-burger" viewBox="0 0 32 32">
      <path d="M4 5.333h24V8H4V5.333zm8 9.334h16v2.667H12v-2.667zM4 24h24v2.667H4V24z"/>
    </symbol>
    <symbol id="icon-facebook" viewBox="0 0 32 32">
    <path fill="none" stroke="#fff" style="stroke: var(--color1, #fff)" stroke-linejoin="round" stroke-linecap="round" stroke-miterlimit="4" stroke-width="2.2857" d="M24 2.667h-4c-1.768 0-3.464 0.702-4.714 1.953s-1.953 2.946-1.953 4.714v4h-4v5.333h4v10.667h5.333v-10.667h4l1.333-5.333h-5.333v-4c0-0.354 0.14-0.693 0.39-0.943s0.589-0.391 0.943-0.391h4v-5.333z"></path>
    </symbol>
    <symbol id="icon-instagram" viewBox="0 0 32 32">
      <path fill="none" stroke="#fff" stroke-linecap="round" stroke-linejoin="round" stroke-width="2" d="M22.666 2.667H9.333a6.667 6.667 0 0 0-6.667 6.667v13.333a6.667 6.667 0 0 0 6.667 6.667h13.333a6.667 6.667 0 0 0 6.667-6.667V9.334a6.667 6.667 0 0 0-6.667-6.667z"/>
      <path fill="none" stroke="#fff" stroke-linecap="round" stroke-linejoin="round" stroke-width="2" d="M21.333 15.16a5.336 5.336 0 0 1-6.123 6.049 5.33 5.33 0 0 1-3.916-7.663 5.336 5.336 0 0 1 8.535-1.374 5.328 5.328 0 0 1 1.504 2.989zM23.334 8.667h.013"/>
    </symbol>
    <symbol id="icon-close-cross" viewBox="0 0 32 32">
      <path d="M32 3.223 28.777 0 16 12.777 3.223 0 0 3.223 12.777 16 0 28.777 3.223 32 16 19.223 28.777 32 32 28.777 19.223 16 32 3.223z"/>
    </symbol>
    <symbol id="icon-btn-arrow" viewBox="0 0 32 32">
      <path d="M11.079 18.921c-0.055 0.035-0.091 0.095-0.091 0.163 0 0.106 0.086 0.193 0.193 0.193 0.038 0 0.073-0.011 0.103-0.030l-0.001 0-0.204-0.327zM21.177 12.999c0.003-0.013 0.005-0.028 0.005-0.043 0-0.091-0.063-0.167-0.148-0.188l-0.001-0-1.69-0.39c-0.013-0.003-0.028-0.005-0.043-0.005-0.106 0-0.193 0.086-0.193 0.193 0 0.091 0.063 0.167 0.148 0.188l0.001 0 1.503 0.347-0.347 1.502c-0.003 0.013-0.005 0.028-0.005 0.043 0 0.106 0.086 0.193 0.193 0.193 0.091 0 0.167-0.063 0.188-0.148l0-0.001 0.39-1.691zM11.283 19.248l9.809-6.129-0.204-0.327-9.809 6.129 0.204 0.327z"></path>
    </symbol>
    <symbol id="icon-btn-txt" viewBox="0 0 32 32">
      <path d="M28.663 16.733c0.009-0.15 0.038-0.291 0.087-0.422 0.052-0.131 0.112-0.233 0.181-0.306l0.188 0.122c-0.060 0.071-0.114 0.163-0.162 0.276-0.044 0.106-0.073 0.229-0.080 0.357l-0 0.003c-0.010 0.173 0.009 0.299 0.058 0.379 0.051 0.079 0.122 0.122 0.212 0.127 0.067 0.004 0.12-0.015 0.16-0.057 0.042-0.039 0.074-0.093 0.096-0.161 0.025-0.068 0.047-0.145 0.065-0.229s0.040-0.169 0.063-0.254c0.023-0.082 0.054-0.157 0.093-0.224 0.041-0.067 0.094-0.121 0.159-0.161 0.065-0.038 0.149-0.054 0.253-0.048 0.099 0.006 0.187 0.039 0.262 0.099s0.132 0.145 0.169 0.253c0.040 0.111 0.056 0.244 0.046 0.399-0.008 0.128-0.032 0.247-0.072 0.36l0.003-0.009c-0.037 0.116-0.083 0.211-0.138 0.284l-0.191-0.119c0.060-0.078 0.104-0.162 0.133-0.253 0.031-0.091 0.049-0.183 0.054-0.275 0.009-0.164-0.012-0.287-0.066-0.369-0.051-0.079-0.12-0.122-0.208-0.127-0.069-0.004-0.125 0.014-0.166 0.053-0.044 0.046-0.079 0.1-0.102 0.161l-0.001 0.003c-0.025 0.070-0.047 0.147-0.066 0.229-0.019 0.085-0.041 0.168-0.067 0.25-0.024 0.087-0.056 0.162-0.096 0.232l0.003-0.005c-0.037 0.070-0.087 0.124-0.152 0.162-0.063 0.040-0.144 0.058-0.243 0.052-0.106-0.006-0.197-0.041-0.272-0.106-0.073-0.062-0.128-0.151-0.165-0.267-0.035-0.113-0.048-0.25-0.039-0.409zM30.209 19.111c-0.031 0.145-0.087 0.265-0.166 0.362-0.077 0.097-0.182 0.169-0.302 0.203l-0.004 0.001c-0.127 0.039-0.276 0.040-0.448 0.003l-1.035-0.222 0.052-0.241 1.011 0.217c0.188 0.040 0.339 0.023 0.455-0.051 0.117-0.072 0.194-0.193 0.23-0.362 0.027-0.127 0.025-0.243-0.007-0.349s-0.092-0.197-0.173-0.264l-0.001-0.001c-0.084-0.070-0.194-0.12-0.33-0.149l-0.936-0.201 0.052-0.241 2.517 0.54-0.052 0.241-1.225-0.263 0.102-0.028c0.114 0.082 0.199 0.197 0.242 0.332l0.001 0.005c0.048 0.141 0.053 0.297 0.017 0.468zM27.766 20.76c0.067-0.163 0.163-0.295 0.289-0.395 0.119-0.093 0.266-0.157 0.425-0.18l0.005-0.001c0.161-0.021 0.325 0.002 0.492 0.071 0.169 0.069 0.302 0.168 0.4 0.295s0.157 0.27 0.177 0.429c0.020 0.158-0.004 0.32-0.071 0.485-0.068 0.167-0.165 0.3-0.291 0.398-0.117 0.096-0.263 0.161-0.423 0.181l-0.004 0c-0.159 0.022-0.323-0.001-0.492-0.071-0.167-0.068-0.3-0.167-0.4-0.295-0.095-0.119-0.159-0.265-0.18-0.426l-0-0.004c-0.019-0.16 0.005-0.323 0.072-0.488zM27.969 20.843c-0.050 0.122-0.067 0.241-0.053 0.357 0.017 0.117 0.064 0.222 0.14 0.316 0.078 0.097 0.182 0.172 0.312 0.226 0.133 0.054 0.26 0.074 0.381 0.059 0.122-0.012 0.231-0.059 0.32-0.129l-0.001 0.001c0.094-0.071 0.166-0.167 0.215-0.287s0.065-0.238 0.048-0.355c-0.016-0.122-0.065-0.23-0.137-0.319l0.001 0.001c-0.076-0.096-0.18-0.171-0.312-0.226-0.131-0.054-0.258-0.073-0.381-0.059s-0.233 0.061-0.325 0.131l0.002-0.001c-0.093 0.074-0.165 0.17-0.209 0.28l-0.002 0.005zM26.715 22.804c0.084-0.133 0.19-0.234 0.319-0.303 0.109-0.058 0.239-0.091 0.376-0.091 0.019 0 0.038 0.001 0.056 0.002l-0.003-0c0.157 0.011 0.32 0.070 0.488 0.176s0.29 0.227 0.366 0.362c0.078 0.137 0.113 0.278 0.106 0.424s-0.053 0.286-0.139 0.421c-0.093 0.147-0.209 0.257-0.348 0.33-0.115 0.065-0.252 0.103-0.399 0.103-0.018 0-0.036-0.001-0.053-0.002l0.002 0c-0.159-0.008-0.316-0.060-0.471-0.158-0.157-0.099-0.272-0.218-0.348-0.359-0.065-0.117-0.103-0.257-0.103-0.405 0-0.016 0-0.031 0.001-0.046l-0 0.002c0.006-0.157 0.056-0.31 0.148-0.456zM26.662 21.659l2.11 1.331-0.126 0.2-0.464-0.293-0.295-0.215-0.33-0.167-1.027-0.648 0.132-0.208zM26.909 22.907c-0.069 0.11-0.106 0.223-0.112 0.34-0 0.006-0 0.013-0 0.019 0 0.117 0.030 0.227 0.084 0.323l-0.002-0.003c0.060 0.109 0.149 0.201 0.269 0.276s0.24 0.116 0.362 0.122c0.011 0.001 0.025 0.001 0.038 0.001 0.111 0 0.215-0.027 0.307-0.075l-0.004 0.002c0.105-0.054 0.192-0.136 0.261-0.245 0.064-0.097 0.105-0.216 0.111-0.343l0-0.002c0-0.006 0-0.013 0-0.020 0-0.117-0.030-0.227-0.084-0.322l0.002 0.003c-0.059-0.106-0.148-0.196-0.268-0.272s-0.24-0.117-0.363-0.127c-0.011-0.001-0.024-0.001-0.038-0.001-0.111 0-0.215 0.027-0.307 0.075l0.004-0.002c-0.108 0.061-0.196 0.145-0.259 0.247l-0.002 0.003zM25.988 26.58c-0.107 0.102-0.221 0.17-0.342 0.205-0.053 0.017-0.114 0.027-0.177 0.027-0.068 0-0.134-0.012-0.195-0.033l0.004 0.001c-0.127-0.039-0.25-0.123-0.372-0.25l-0.729-0.767 0.178-0.17 0.712 0.749c0.132 0.139 0.267 0.21 0.404 0.214 0.137 0.007 0.269-0.050 0.395-0.169 0.094-0.089 0.158-0.187 0.191-0.292 0.034-0.102 0.036-0.208 0.006-0.317-0.030-0.105-0.093-0.208-0.188-0.309l-0.66-0.694 0.178-0.17 1.255 1.32-0.171 0.163-0.344-0.362 0.092 0.041c0.025 0.067 0.040 0.144 0.040 0.225 0 0.068-0.010 0.133-0.030 0.195l0.001-0.005c-0.040 0.143-0.123 0.275-0.251 0.396zM23.062 26.552c0.146-0.098 0.3-0.153 0.461-0.166 0.017-0.001 0.038-0.002 0.058-0.002 0.145 0 0.283 0.034 0.405 0.095l-0.005-0.002c0.146 0.072 0.269 0.184 0.369 0.334 0.102 0.152 0.157 0.308 0.167 0.469 0.001 0.017 0.002 0.037 0.002 0.057 0 0.145-0.035 0.281-0.097 0.402l0.002-0.005c-0.072 0.142-0.182 0.263-0.33 0.362-0.15 0.1-0.305 0.156-0.464 0.168-0.022 0.002-0.047 0.003-0.073 0.003-0.139 0-0.271-0.034-0.387-0.094l0.005 0.002c-0.144-0.071-0.267-0.182-0.369-0.334-0.1-0.15-0.156-0.306-0.167-0.469-0.002-0.020-0.002-0.042-0.002-0.065 0-0.143 0.035-0.278 0.096-0.397l-0.002 0.005c0.074-0.144 0.185-0.265 0.333-0.364zM23.183 26.733c-0.11 0.073-0.191 0.162-0.243 0.267-0.040 0.081-0.064 0.177-0.064 0.278 0 0.022 0.001 0.044 0.003 0.066l-0-0.003c0.010 0.124 0.055 0.244 0.133 0.362 0.080 0.119 0.174 0.206 0.283 0.262 0.084 0.046 0.184 0.074 0.291 0.074 0.016 0 0.032-0.001 0.047-0.002l-0.002 0c0.118-0.006 0.231-0.046 0.339-0.118s0.187-0.161 0.238-0.268c0.053-0.105 0.074-0.218 0.065-0.34s-0.053-0.242-0.133-0.362c-0.078-0.117-0.173-0.205-0.283-0.262-0.088-0.047-0.193-0.074-0.304-0.074-0.013 0-0.026 0-0.038 0.001l0.002-0c-0.126 0.010-0.24 0.053-0.336 0.12l0.002-0.001zM21.597 27.447l1.332 1.42-0.218 0.090-1.224-1.322 0.099-0.041 0.054 1.807-0.195 0.081-1.234-1.318 0.099-0.041 0.060 1.804-0.208 0.086-0.059-1.947 0.215-0.089 1.172 1.235-0.067 0.028-0.041-1.703 0.215-0.089zM17.898 28.556c0.065-0.011 0.141-0.017 0.218-0.017 0.075 0 0.15 0.006 0.222 0.017l-0.008-0.001c0.139 0.024 0.251 0.062 0.336 0.115l-0.081 0.209c-0.081-0.044-0.182-0.078-0.303-0.103-0.060-0.011-0.129-0.018-0.2-0.018-0.060 0-0.118 0.005-0.175 0.014l0.006-0.001c-0.172 0.025-0.291 0.070-0.359 0.134-0.067 0.066-0.094 0.144-0.082 0.233 0.010 0.067 0.039 0.115 0.088 0.145 0.047 0.033 0.106 0.053 0.177 0.061 0.072 0.010 0.151 0.016 0.238 0.018s0.174 0.005 0.261 0.011c0.085 0.006 0.165 0.021 0.238 0.046 0.074 0.026 0.137 0.067 0.19 0.123 0.050 0.056 0.083 0.135 0.098 0.238 0.014 0.098 0 0.19-0.044 0.276s-0.115 0.158-0.214 0.217c-0.101 0.062-0.228 0.104-0.381 0.126-0.058 0.009-0.124 0.014-0.191 0.014-0.058 0-0.116-0.004-0.172-0.011l0.007 0.001c-0.121-0.013-0.223-0.038-0.306-0.078l0.078-0.211c0.088 0.043 0.18 0.069 0.274 0.079 0.095 0.012 0.189 0.011 0.28-0.003 0.163-0.024 0.278-0.070 0.348-0.139 0.067-0.066 0.095-0.143 0.082-0.23-0.010-0.069-0.039-0.119-0.086-0.152-0.052-0.033-0.113-0.057-0.179-0.067l-0.003-0c-0.070-0.010-0.152-0.016-0.236-0.018l-0.002-0c-0.087-0.001-0.173-0.006-0.258-0.015-0.088-0.005-0.17-0.021-0.248-0.047l0.007 0.002c-0.075-0.021-0.139-0.061-0.189-0.116l-0-0c-0.052-0.053-0.086-0.129-0.1-0.227-0.015-0.105 0.001-0.201 0.049-0.288 0.046-0.084 0.122-0.156 0.228-0.216 0.104-0.057 0.235-0.098 0.392-0.121zM15.845 30.552c-0.148-0.001-0.278-0.031-0.388-0.090-0.113-0.057-0.203-0.146-0.26-0.256l-0.002-0.003c-0.064-0.116-0.095-0.262-0.094-0.438l0.008-1.058 0.246 0.002-0.008 1.034c-0.002 0.192 0.046 0.337 0.142 0.435 0.094 0.1 0.228 0.151 0.401 0.152 0.13 0.001 0.243-0.025 0.341-0.077 0.095-0.050 0.17-0.125 0.224-0.224 0.051-0.097 0.078-0.215 0.079-0.353l0.007-0.958 0.246 0.002-0.020 2.574-0.246-0.002 0.010-1.252 0.048 0.094c-0.059 0.131-0.156 0.237-0.277 0.305l-0.003 0.002c-0.128 0.075-0.28 0.112-0.455 0.111zM13.76 28.499c0.173 0.032 0.322 0.099 0.446 0.201 0.118 0.101 0.209 0.23 0.263 0.377l0.002 0.006c0.054 0.153 0.065 0.319 0.033 0.496-0.033 0.18-0.102 0.331-0.206 0.453-0.1 0.118-0.229 0.208-0.377 0.26l-0.006 0.002c-0.151 0.052-0.314 0.063-0.489 0.031-0.177-0.033-0.328-0.1-0.45-0.202-0.12-0.098-0.212-0.227-0.264-0.374l-0.002-0.006c-0.055-0.151-0.066-0.317-0.033-0.496 0.032-0.178 0.101-0.328 0.206-0.453 0.1-0.119 0.229-0.211 0.378-0.263l0.006-0.002c0.153-0.052 0.317-0.062 0.492-0.030zM13.72 28.714c-0.13-0.024-0.25-0.016-0.36 0.022-0.113 0.042-0.208 0.112-0.279 0.201l-0.001 0.001c-0.079 0.096-0.131 0.214-0.156 0.353-0.026 0.141-0.019 0.269 0.021 0.385 0.037 0.115 0.103 0.212 0.19 0.285l0.001 0.001c0.089 0.077 0.198 0.128 0.325 0.151s0.247 0.014 0.358-0.026c0.114-0.041 0.21-0.109 0.282-0.198l0.001-0.001c0.078-0.094 0.13-0.211 0.156-0.352 0.025-0.139 0.018-0.267-0.021-0.385-0.040-0.116-0.107-0.213-0.193-0.289l-0.001-0.001c-0.089-0.074-0.198-0.126-0.318-0.146l-0.004-0.001zM11.544 27.891c0.147 0.055 0.268 0.138 0.363 0.249 0.094 0.114 0.152 0.248 0.176 0.402 0.021 0.156-0.003 0.327-0.072 0.514s-0.162 0.331-0.279 0.433c-0.118 0.104-0.249 0.168-0.393 0.191s-0.291 0.007-0.441-0.049c-0.163-0.060-0.294-0.151-0.395-0.272-0.099-0.114-0.168-0.257-0.192-0.415l-0.001-0.005c-0.025-0.157-0.007-0.322 0.057-0.493 0.064-0.174 0.158-0.312 0.28-0.414 0.115-0.098 0.257-0.166 0.414-0.192l0.005-0.001c0.155-0.026 0.314-0.009 0.477 0.051zM12.653 27.604l-0.868 2.339-0.221-0.082 0.191-0.514 0.149-0.333 0.095-0.357 0.422-1.139 0.231 0.086zM11.484 28.103c-0.121-0.045-0.24-0.058-0.356-0.040-0.122 0.023-0.228 0.075-0.315 0.151l0.001-0.001c-0.094 0.081-0.166 0.188-0.215 0.32s-0.064 0.259-0.044 0.38c0.019 0.121 0.066 0.227 0.141 0.319s0.173 0.16 0.294 0.205c0.121 0.045 0.241 0.057 0.36 0.037 0.122-0.023 0.228-0.075 0.315-0.151l-0.001 0.001c0.091-0.080 0.161-0.186 0.21-0.318s0.066-0.259 0.049-0.381c-0.019-0.122-0.069-0.231-0.142-0.32l0.001 0.001c-0.079-0.091-0.179-0.16-0.293-0.202l-0.005-0.002zM7.697 27.95c-0.122-0.084-0.212-0.182-0.27-0.293-0.047-0.083-0.075-0.182-0.075-0.287 0-0.026 0.002-0.052 0.005-0.077l-0 0.003c0.013-0.132 0.069-0.27 0.17-0.414l0.604-0.869 0.202 0.141-0.59 0.849c-0.109 0.158-0.152 0.304-0.128 0.439 0.021 0.136 0.103 0.253 0.246 0.352 0.106 0.074 0.215 0.117 0.325 0.128 0.018 0.002 0.039 0.003 0.061 0.003
      0.092 0 0.178-0.023 0.253-0.063l-0.003 0.001c0.097-0.051 0.185-0.133 0.265-0.247l0.546-0.787 0.202 0.141-1.039 1.496-0.194-0.135 0.285-0.41-0.022 0.099c-0.098 0.062-0.217 0.098-0.344 0.098-0.021 0-0.042-0.001-0.062-0.003l0.003 0c-0.148-0.010-0.294-0.065-0.439-0.165zM7.135 25.083c0.125 0.123 0.21 0.263 0.256 0.418 0.042 0.155 0.043 0.311 0.003 0.466-0.041 0.157-0.125 0.3-0.252 0.429-0.128 0.13-0.27 0.216-0.425 0.258-0.070 0.020-0.151 0.032-0.234 0.032-0.082 0-0.161-0.011-0.236-0.032l0.006 0.001c-0.154-0.041-0.295-0.125-0.421-0.25-0.129-0.127-0.215-0.267-0.258-0.42-0.022-0.072-0.035-0.156-0.035-0.242 0-0.079 0.011-0.155 0.031-0.228l-0.001 0.006c0.040-0.156 0.124-0.299 0.252-0.429 0.127-0.128 0.268-0.215 0.425-0.258 0.072-0.021 0.154-0.034 0.239-0.034 0.081 0 0.159 0.011 0.233 0.032l-0.006-0.001c0.156 0.043 0.297 0.127 0.424 0.252zM6.982 25.239c-0.094-0.093-0.197-0.154-0.31-0.184-0.047-0.012-0.1-0.019-0.156-0.019-0.068 0-0.133 0.011-0.195 0.030l0.005-0.001c-0.119 0.035-0.228 0.103-0.327 0.204-0.101 0.102-0.167 0.212-0.199 0.33-0.016 0.053-0.026 0.113-0.026 0.176 0 0.060 0.008 0.117 0.024 0.172l-0.001-0.004c0.030 0.114 0.092 0.217 0.184 0.308s0.196 0.151 0.31 0.179c0.049 0.014 0.106 0.022 0.164 0.022 0.065 0 0.127-0.010 0.186-0.028l-0.005 0.001c0.118-0.034 0.227-0.101 0.327-0.204 0.099-0.101 0.165-0.211 0.199-0.33 0.032-0.118 0.033-0.234 0.002-0.349-0.036-0.12-0.099-0.222-0.184-0.303l-0-0zM5.965 23.838l-1.116 1.595-0.133-0.195 1.042-1.469 0.061 0.089-1.757 0.424-0.12-0.175 1.037-1.478 0.061 0.089-1.753 0.43-0.127-0.186 1.894-0.458 0.131 0.192-0.967 1.401-0.041-0.060 1.659-0.39 0.131 0.192zM4.116 20.45c0.048 0.124 0.081 0.268 0.090 0.418l0 0.004c0.005 0.141-0.009 0.259-0.043 0.353l-0.221-0.037c0.026-0.089 0.039-0.195 0.038-0.317-0.004-0.131-0.030-0.255-0.074-0.37l0.003 0.008c-0.061-0.163-0.129-0.27-0.205-0.323-0.079-0.052-0.16-0.063-0.245-0.031-0.063 0.023-0.104 0.062-0.123 0.116-0.023 0.053-0.030 0.115-0.024 0.186 0.005 0.072 0.015 0.151 0.032 0.236s0.031 0.171 0.044 0.258c0.012 0.084 0.014 0.165 0.005 0.242-0.011 0.080-0.039 0.152-0.082 0.213l0.001-0.002c-0.044 0.061-0.115 0.109-0.213 0.145-0.093 0.035-0.186 0.040-0.28 0.015s-0.179-0.079-0.257-0.164c-0.081-0.086-0.149-0.201-0.203-0.347-0.039-0.102-0.066-0.221-0.077-0.344l-0-0.005c-0.013-0.121-0.009-0.226 0.013-0.316l0.223 0.032c-0.016 0.059-0.025 0.127-0.025 0.198 0 0.031 0.002 0.061 0.005 0.091l-0-0.004c0.008 0.096 0.029 0.187 0.061 0.274 0.057 0.154 0.126 0.258 0.208 0.312 0.078 0.052 0.159 0.063 0.241 0.033 0.065-0.024 0.109-0.063 0.131-0.115 0.022-0.055 0.031-0.119 0.029-0.192-0.007-0.089-0.018-0.17-0.034-0.249l0.002 0.013c-0.014-0.066-0.028-0.153-0.038-0.241l-0.001-0.014c-0.007-0.044-0.011-0.095-0.011-0.146 0-0.035 0.002-0.069 0.005-0.103l-0 0.004c0.005-0.079 0.030-0.148 0.074-0.209 0.041-0.062 0.108-0.11 0.202-0.145 0.048-0.020 0.104-0.031 0.163-0.031 0.046 0 0.090 0.007 0.132 0.020l-0.003-0.001c0.092 0.028 0.178 0.087 0.258 0.178 0.078 0.090 0.144 0.209 0.2 0.359zM1.748 18.896c-0.029-0.145-0.027-0.278 0.008-0.398 0.033-0.125 0.104-0.231 0.198-0.309l0.001-0.001c0.1-0.087 0.237-0.147 0.409-0.182l1.037-0.21 0.049 0.242-1.013 0.205c-0.188 0.038-0.32 0.114-0.396 0.229-0.079 0.113-0.101 0.254-0.066 0.424 0.026 0.127 0.074 0.233 0.146 0.317 0.069 0.083 0.157 0.14 0.265 0.173 0.105 0.031 0.226 0.032 0.362 0.005l0.939-0.19 0.049 0.242-2.523 0.511-0.049-0.242 1.228-0.249-0.082 0.066c-0.144-0.031-0.267-0.106-0.357-0.21l-0.001-0.001c-0.1-0.11-0.168-0.25-0.202-0.423zM3.326 16.435c0.005 0.176-0.030 0.335-0.105 0.478-0.077 0.14-0.186 0.255-0.317 0.336l-0.004 0.002c-0.139 0.085-0.299 0.13-0.479 0.134-0.183 0.005-0.344-0.031-0.485-0.108-0.14-0.076-0.253-0.185-0.333-0.317l-0.002-0.004c-0.082-0.137-0.126-0.294-0.131-0.472-0.005-0.18 0.030-0.341 0.105-0.482 0.074-0.142 0.182-0.256 0.314-0.336l0.004-0.002c0.136-0.085 0.296-0.13 0.479-0.134 0.18-0.005 0.342 0.031 0.485 0.108 0.141 0.076 0.256 0.185 0.336 0.317l0.002 0.004c0.083 0.139 0.126 0.297 0.131 0.475zM3.108 16.441c-0.004-0.132-0.036-0.248-0.096-0.348-0.063-0.1-0.15-0.179-0.252-0.231l-0.004-0.002c-0.11-0.057-0.236-0.084-0.377-0.080-0.143 0.004-0.268 0.037-0.372 0.1-0.105 0.061-0.185 0.143-0.24 0.246-0.057 0.104-0.084 0.22-0.081 0.349s0.037 0.244 0.1 0.344c0.061 0.1 0.145 0.179 0.253 0.236s0.234 0.084 0.377 0.080c0.141-0.004 0.265-0.037 0.372-0.1 0.102-0.061 0.185-0.145 0.242-0.246l0.002-0.003c0.055-0.103 0.081-0.219 0.078-0.346zM3.46 14.124c-0.023 0.156-0.079 0.291-0.169 0.407-0.092 0.114-0.213 0.202-0.351 0.254l-0.006 0.002c-0.148 0.053-0.321 0.065-0.517 0.036s-0.357-0.090-0.482-0.183c-0.126-0.094-0.216-0.208-0.268-0.345s-0.067-0.283-0.044-0.441c0.025-0.172 0.087-0.319 0.185-0.443 0.094-0.123 0.219-0.218 0.365-0.273l0.006-0.002c0.149-0.058 0.314-0.073 0.494-0.047 0.183 0.027 0.337 0.089 0.463 0.188 0.122 0.095 0.217 0.22 0.273 0.364l0.002 0.006c0.058 0.146 0.074 0.306 0.049 0.477zM3.972 15.149l-2.468-0.363 0.034-0.233 0.542 0.080 0.357 0.077 0.369 0.019 1.201 0.177-0.036 0.244zM3.241 14.109c0.019-0.128 0.007-0.247-0.035-0.356-0.046-0.112-0.119-0.205-0.21-0.275l-0.002-0.001c-0.099-0.075-0.218-0.123-0.358-0.144s-0.266-0.009-0.381 0.035c-0.114 0.044-0.208 0.112-0.283 0.204s-0.121 0.202-0.14 0.33c-0.006 0.033-0.009 0.071-0.009 0.11 0 0.090 0.017 0.176 0.049 0.255l-0.002-0.005c0.046 0.112 0.119 0.205 0.21 0.275l0.002 0.001c0.097 0.073 0.215 0.12 0.355 0.14s0.267 0.010 0.383-0.031c0.114-0.043 0.209-0.114 0.282-0.203l0.001-0.001c0.071-0.093 0.12-0.207 0.136-0.33l0-0.004zM2.613 10.342c0.058-0.136 0.135-0.244 0.231-0.324 0.091-0.080 0.208-0.132 0.337-0.143l0.002-0c0.132-0.015 0.279 0.012 0.44 0.081l0.975 0.412-0.096 0.227-0.952-0.403c-0.177-0.075-0.329-0.086-0.456-0.035-0.129 0.049-0.227 0.153-0.294 0.313-0.050 0.119-0.070 0.234-0.059 0.344 0.010 0.107 0.050 0.205 0.121 0.292 0.070 0.085 0.168 0.154 0.296 0.208l0.882 0.373-0.096 0.227-1.678-0.709 0.092-0.217 0.46 0.195-0.101-0.001c-0.095-0.099-0.159-0.229-0.176-0.373l-0-0.003c-0.021-0.147 0.003-0.301 0.072-0.463zM5.302 9.207c-0.096 0.147-0.215 0.259-0.357 0.335-0.119 0.062-0.261 0.099-0.41 0.099-0.016 0-0.032-0-0.048-0.001l0.002 0c-0.162-0.009-0.319-0.062-0.471-0.16-0.153-0.099-0.266-0.22-0.339-0.364-0.061-0.116-0.097-0.254-0.097-0.399 0-0.019 0.001-0.038 0.002-0.057l-0 0.003c0.009-0.159 0.062-0.314 0.159-0.463 0.098-0.152 0.218-0.264 0.359-0.338 0.116-0.064 0.254-0.101 0.401-0.101 0.018 0 0.037 0.001 0.055 0.002l-0.002-0c0.161 0.007 0.317 0.061 0.471 0.16 0.152 0.098 0.264 0.219 0.339 0.364 0.062 0.117 0.099 0.255 0.099 0.403 0 0.019-0.001 0.037-0.002 0.055l0-0.002c-0.010 0.161-0.064 0.317-0.161 0.466zM5.119 9.088c0.072-0.111 0.111-0.225 0.118-0.341 0-0.008 0.001-0.017 0.001-0.027 0-0.114-0.030-0.221-0.082-0.313l0.002 0.003c-0.059-0.11-0.147-0.203-0.266-0.279-0.12-0.078-0.242-0.12-0.364-0.128-0.016-0.001-0.034-0.002-0.053-0.002-0.104 0-0.202 0.026-0.288 0.071l0.003-0.002c-0.106 0.053-0.194 0.133-0.264 0.242s-0.108 0.222-0.113 0.34c-0.007 0.117 0.018 0.229 0.075 0.338s0.145 0.201 0.266 0.279c0.119 0.077 0.24 0.119 0.364 0.128 0.014 0.001 0.029 0.002 0.045 0.002 0.108 0 0.21-0.026 0.3-0.072l-0.004 0.002c0.104-0.054 0.19-0.134 0.259-0.241zM6.277 7.809l-1.788-0.77 0.164-0.17 1.65 0.723-0.075 0.077-0.771-1.635 0.147-0.152 1.657 0.716-0.075 0.077-0.776-1.63 0.157-0.162 0.832 1.761-0.161 0.167-1.568-0.664 0.051-0.052 0.718 1.545-0.161 0.167zM9.187 5.322c-0.113 0.074-0.244 0.133-0.384 0.173l-0.010 0.002c-0.137 0.034-0.255 0.045-0.354 0.030l-0.010-0.224c0.092 0.008 0.198-0.002 0.318-0.029 0.129-0.032 0.242-0.081 0.344-0.147l-0.004 0.003c0.147-0.093 0.238-0.182 0.274-0.267 0.035-0.088 0.028-0.17-0.020-0.246-0.036-0.057-0.082-0.089-0.139-0.097-0.056-0.011-0.119-0.006-0.187 0.016-0.070 0.019-0.145 0.046-0.224 0.080s-0.161 0.066-0.243 0.096c-0.080 0.029-0.159 0.047-0.236 0.055-0.011 0.001-0.025 0.002-0.038 0.002-0.067 0-0.13-0.014-0.188-0.038l0.003 0.001c-0.068-0.031-0.13-0.090-0.186-0.178-0.046-0.069-0.073-0.154-0.073-0.246 0-0.009 0-0.017 0.001-0.026l-0 0.001c0.005-0.096 0.041-0.191 0.107-0.285 0.067-0.097 0.167-0.187 0.298-0.27 0.094-0.060 0.201-0.11 0.316-0.145l0.009-0.002c0.116-0.038 0.22-0.055 0.311-0.053l0.014 0.225c-0.010-0-0.022-0.001-0.034-0.001-0.089 0-0.175 0.015-0.255 0.041l0.006-0.002c-0.097 0.030-0.182 0.069-0.259 0.118l0.004-0.002c-0.139 0.088-0.226 0.177-0.262 0.268-0.035 0.088-0.029 0.169 0.018 0.243 0.037 0.059 0.084 0.093 0.14 0.105 0.058 0.010 0.123 0.006 0.194-0.012 0.072-0.021 0.146-0.047 0.224-0.080 0.080-0.034 0.16-0.064 0.242-0.091 0.082-0.030 0.162-0.049 0.239-0.057 0.018-0.003 0.038-0.004 0.059-0.004 0.058 0 0.113 0.013 0.163 0.035l-0.002-0.001c0.069 0.027 0.13 0.083 0.184 0.167 0.057 0.090 0.081 0.184 0.072 0.283-0.008 0.095-0.049 0.192-0.121 0.29-0.072 0.094-0.175 0.184-0.31 0.269zM10.256 2.661c0.136-0.059 0.266-0.083 0.391-0.074 0.131 0.006 0.25 0.055 0.345 0.132l-0.001-0.001c0.105 0.081 0.193 0.201 0.263 0.363l0.42 0.972-0.226 0.098-0.41-0.949c-0.076-0.176-0.178-0.29-0.306-0.34-0.126-0.054-0.269-0.046-0.429 0.023-0.119 0.051-0.212 0.121-0.281 0.208-0.065 0.081-0.106 0.182-0.114 0.293l-0 0.002c-0.008 0.109 0.015 0.228 0.070 0.355l0.38 0.879-0.226 0.098-1.021-2.364 0.226-0.098 0.497 1.15-0.082-0.067c0-0.149 0.050-0.285 0.134-0.395l-0.001 0.002c0.087-0.121 0.21-0.216 0.372-0.285zM12.951 3.707c-0.171 0.041-0.334 0.039-0.49-0.004-0.157-0.048-0.291-0.132-0.397-0.244l-0-0c-0.112-0.119-0.188-0.265-0.23-0.441-0.042-0.178-0.040-0.344 0.006-0.497 0.047-0.156 0.132-0.289 0.244-0.393l0.001-0.001c0.117-0.109 0.262-0.184 0.435-0.225 0.175-0.042 0.34-0.040 0.493 0.004 0.158 0.044 0.292 0.128 0.396 0.24l0.001 0.001c0.111 0.116 0.188 0.263 0.23 0.441 0.042 0.175 0.040 0.341-0.006 0.497-0.046 0.158-0.131 0.292-0.244 0.397l-0.001 0.001c-0.119 0.109-0.265 0.185-0.438 0.226zM12.9 3.494c0.128-0.031 0.235-0.086 0.321-0.166 0.082-0.079 0.143-0.181 0.174-0.294l0.001-0.004c0.033-0.12 0.034-0.248 0.001-0.385-0.033-0.14-0.092-0.254-0.175-0.344-0.076-0.086-0.174-0.15-0.286-0.183l-0.004-0.001c-0.113-0.035-0.232-0.037-0.359-0.007s-0.231 0.086-0.317 0.168c-0.084 0.078-0.146 0.179-0.178 0.292l-0.001 0.005c-0.034 0.118-0.034 0.246-0.001 0.386 0.033 0.137 0.091 0.252 0.175 0.344 0.083 0.089 0.181 0.152 0.294 0.187 0.113 0.033 0.231 0.034 0.354 0.005zM15.192 3.363c-0.157 0.010-0.301-0.017-0.433-0.081-0.135-0.069-0.244-0.17-0.322-0.293l-0.002-0.003c-0.082-0.134-0.13-0.3-0.142-0.499s0.014-0.368 0.080-0.509c0.066-0.143 0.159-0.254 0.282-0.334s0.264-0.124 0.423-0.134c0.173-0.011 0.33 0.019 0.471 0.089 0.143 0.067 0.258 0.169 0.346 0.305 0.087 0.134 0.136 0.292 0.147 0.474 0.012 0.185-0.018 0.349-0.088 0.492s-0.174 0.26-0.302 0.344l-0.003 0.002c-0.131 0.087-0.284 0.136-0.457 0.147zM14.294 4.076l-0.154-2.49 0.236-0.014 0.034 0.547-0.002 0.365 0.057 0.365 0.075 1.212-0.246 0.015zM15.161 3.146c0.129-0.008 0.243-0.044 0.341-0.108 0.097-0.067 0.175-0.156 0.225-0.26l0.002-0.004c0.053-0.112 0.076-0.239 0.067-0.38s-0.046-0.262-0.113-0.365c-0.064-0.1-0.151-0.179-0.254-0.233l-0.004-0.002c-0.105-0.054-0.223-0.077-0.352-0.069-0.129 0.006-0.247 0.047-0.347 0.113l0.003-0.002c-0.097 0.067-0.175 0.156-0.225 0.26l-0.002 0.004c-0.051 0.11-0.072 0.235-0.064 0.376s0.045 0.264 0.11 0.369c0.064 0.1 0.151 0.179 0.254 0.233l0.004 0.002c0.088 0.042 0.192 0.067 0.301 0.067 0.019 0 0.038-0.001 0.057-0.002l-0.002 0zM18.801 1.751c0.145 0.028 0.267 0.081 0.365 0.159 0.101 0.076 0.171 0.177 0.21 0.303 0.041 0.126 0.046 0.275 0.012 0.448l-0.202 1.039-0.242-0.047 0.198-1.015c0.037-0.188 0.017-0.34-0.060-0.454-0.074-0.116-0.196-0.19-0.367-0.223-0.127-0.025-0.243-0.020-0.349 0.013s-0.195 0.096-0.26 0.178l-0.001 0.001c-0.068 0.086-0.116 0.197-0.143 0.333l-0.183 0.94-0.242-0.047 0.348-1.788 0.232 0.045-0.095 0.49-0.020-0.099c0.080-0.116 0.194-0.203 0.327-0.249l0.005-0.001c0.14-0.051 0.296-0.059 0.468-0.025zM20.456 4.142c-0.164-0.063-0.298-0.157-0.402-0.28-0.096-0.118-0.163-0.262-0.189-0.421l-0.001-0.005c-0.025-0.161-0.005-0.325 0.060-0.494 0.065-0.171 0.161-0.306 0.286-0.407 0.117-0.096 0.261-0.162 0.42-0.186l0.005-0.001c0.158-0.024 0.32-0.003 0.486 0.060 0.168 0.065 0.303 0.158 0.405 0.281 0.104 0.124 0.167 0.265 0.191 0.423 0.026 0.159 0.006 0.323-0.060 0.494-0.065 0.168-0.16 0.304-0.286 0.407-0.117 0.097-0.262 0.165-0.421 0.189l-0.005 0.001c-0.16 0.023-0.323 0.003-0.489-0.061zM20.535 3.938c0.123 0.047 0.242 0.062 0.358 0.045 0.121-0.021 0.228-0.073 0.314-0.148l-0.001 0.001c0.095-0.080 0.168-0.186 0.219-0.318 0.051-0.134 0.068-0.261 0.050-0.382-0.015-0.121-0.064-0.229-0.136-0.317l0.001 0.001c-0.073-0.093-0.171-0.162-0.292-0.209s-0.24-0.060-0.356-0.040c-0.122 0.019-0.229 0.070-0.316 0.144l0.001-0.001c-0.094 0.078-0.167 0.184-0.218 0.317-0.051 0.132-0.067 0.259-0.050 0.382 0.018 0.121 0.064 0.228 0.137 0.32 0.074 0.090 0.171 0.158 0.29 0.204zM22.066 4.828l0.391-1.907 0.2 0.126-0.374 1.762-0.091-0.057 1.445-1.086 0.179 0.113-0.365 1.768-0.091-0.057 1.439-1.090 0.191 0.12-1.556 1.172-0.197-0.124 0.332-1.67 0.062 0.039-1.368 1.016-0.197-0.124zM25.095 7.18c-0.098-0.101-0.182-0.216-0.248-0.343l-0.004-0.008c-0.061-0.127-0.095-0.241-0.102-0.34l0.217-0.055c0.012 0.092 0.042 0.194 0.093 0.306 0.056 0.117 0.126 0.217 0.211 0.303l-0-0c0.12 0.125 0.226 0.196 0.318 0.214 0.093 0.016 0.172-0.007 0.237-0.069 0.048-0.046 0.070-0.098 0.067-0.156-0.001-0.057-0.018-0.117-0.053-0.18-0.042-0.079-0.083-0.146-0.128-0.209l0.004 0.006c-0.050-0.071-0.097-0.144-0.143-0.219-0.040-0.063-0.074-0.136-0.099-0.213l-0.002-0.007c-0.012-0.040-0.019-0.087-0.019-0.135 0-0.032 0.003-0.064 0.009-0.094l-0 0.003c0.016-0.073 0.061-0.146 0.136-0.218 0.066-0.065 0.152-0.11 0.247-0.125l0.003-0c0.095-0.015 0.195 0.001 0.301 0.047 0.109 0.046 0.217 0.125 0.324 0.237 0.082 0.085 0.152 0.181 0.211 0.288 0.060 0.106 0.099 0.204 0.115 0.294l-0.217 0.060c-0.017-0.101-0.050-0.192-0.098-0.273l0.002 0.004c-0.047-0.086-0.102-0.161-0.166-0.227l0 0c-0.114-0.118-0.219-0.186-0.315-0.202-0.093-0.016-0.171 0.006-0.234 0.067-0.050 0.048-0.075 0.101-0.074 0.158 0.002 0.059 0.019 0.121 0.051 0.187 0.035 0.066 0.076 0.134 0.124 0.204 0.050 0.071 0.096 0.144 0.138 0.218 0.046 0.074 0.081 0.149 0.104 0.223 0.027 0.074 0.032 0.148 0.016 0.221-0.013 0.073-0.055 0.145-0.126 0.214-0.077 0.074-0.164 0.116-0.263 0.128-0.095 0.012-0.198-0.008-0.308-0.060-0.107-0.051-0.216-0.134-0.327-0.249zM27.897 7.66c0.085 0.121 0.136 0.243 0.153 0.367 0.005 0.028 0.008 0.061 0.008 0.094 0 0.098-0.024 0.191-0.067 0.273l0.002-0.003c-0.057 0.12-0.157 0.23-0.301 0.331l-0.865 0.61-0.142-0.201 0.845-0.596c0.157-0.111 0.247-0.234 0.27-0.369 0.027-0.135-0.010-0.273-0.11-0.415-0.075-0.106-0.162-0.183-0.261-0.232-0.096-0.048-0.2-0.065-0.312-0.051-0.109 0.014-0.22 0.062-0.333 0.142l-0.783 0.552-0.142-0.201 2.104-1.484 0.142 0.201-1.024 0.722 0.049-0.094c0.040-0.009 0.086-0.014 0.133-0.014 0.101 0 0.197 0.023 0.283 0.064l-0.004-0.002c0.136 0.060 0.254 0.162 0.355 0.306zM27.442 10.54c-0.075-0.159-0.107-0.319-0.096-0.48 0.014-0.16 0.066-0.306 0.157-0.439 0.093-0.133 0.221-0.239 0.384-0.316 0.165-0.078 0.328-0.11 0.488-0.096s0.305 0.067 0.436 0.159 0.234 0.218 0.31 0.38c0.077 0.163 0.11 0.324 0.098 0.483-0.010 0.165-0.067 0.315-0.156 0.44l0.002-0.003c-0.091 0.132-0.219 0.238-0.384 0.316-0.163 0.077-0.326 0.109-0.488 0.096-0.166-0.012-0.316-0.069-0.442-0.159l0.003 0.002c-0.131-0.094-0.235-0.222-0.311-0.383zM27.64 10.447c0.056 0.119 0.132 0.212 0.228 0.28 0.092 0.064 0.205 0.104 0.327 0.11l0.002 0c0.124 0.008 0.25-0.018 0.377-0.078 0.13-0.061 0.23-0.142 0.3-0.242 0.072-0.098 0.112-0.205 0.12-0.322 0.011-0.118-0.011-0.235-0.067-0.352s-0.132-0.209-0.23-0.275c-0.091-0.065-0.203-0.106-0.325-0.114l-0.002-0c-0.122-0.009-0.248 0.017-0.377 0.078-0.128 0.060-0.228 0.141-0.3 0.242-0.066 0.091-0.11 0.203-0.122 0.323l-0 0.003c-0.001 0.014-0.002 0.030-0.002 0.047 0 0.11 0.026 0.213 0.072 0.305l-0.002-0.004zM28.235 12.664c-0.042-0.152-0.045-0.298-0.009-0.44 0.041-0.149 0.119-0.277 0.223-0.378l0-0c0.114-0.108 0.267-0.189 0.459-0.242s0.363-0.062 0.515-0.026c0.153 0.034 0.282 0.104 0.384 0.207s0.176 0.232 0.218 0.386c0.046 0.167 0.049 0.327 0.010 0.48-0.038 0.159-0.118 0.295-0.228 0.401l-0 0c-0.113 0.113-0.258 0.193-0.434 0.242-0.178 0.049-0.345 0.054-0.5 0.015-0.158-0.040-0.294-0.12-0.401-0.228l-0-0c-0.112-0.111-0.191-0.25-0.237-0.417zM27.353 11.932l2.406-0.662 0.062 0.227-0.529 0.145-0.358 0.073-0.345 0.131-1.171 0.322-0.065-0.238zM28.441 12.589c0.034 0.125 0.093 0.229 0.176 0.312 0.085 0.082 0.187 0.138 0.305 0.168 0.121 0.029 0.249 0.025 0.385-0.012s0.248-0.099 0.334-0.185c0.087-0.086 0.146-0.186 0.177-0.3s0.029-0.234-0.005-0.359c-0.033-0.124-0.095-0.23-0.18-0.314v0c-0.082-0.080-0.186-0.138-0.301-0.167l-0.005-0.001c-0.118-0.028-0.245-0.023-0.381 0.015s-0.249 0.098-0.338 0.183c-0.087 0.086-0.146 0.186-0.177 0.3-0.028 0.116-0.025 0.236 0.009 0.361z"></path>
    </symbol>   
  </defs>
</svg>